<?xml version="1.0" encoding="UTF-8"?>
<svg id="Calque_1" data-name="Calque 1" xmlns="http://www.w3.org/2000/svg" version="1.1" viewBox="0 0 1000 1000">
  <defs>
    <style>
      .cls-1 {
        fill: none;
      }

      .cls-1, .cls-2, .cls-3, .cls-4 {
        stroke-width: 0px;
      }

      .cls-2 {
        fill: #ee841f;
      }

      .cls-3 {
        fill: #000;
      }

      .cls-4 {
        fill: #fff;
      }
    </style>
  </defs>
  <path class="cls-3" d="M1128.7,612.4s0,0,0,0c-.2-.2-.4-.4-.6-.5.2.2.4.4.6.6Z"/>
  <path class="cls-3" d="M1129,612.9c2,3,1.4,1.3,0-.3,0,0-.2-.2-.3-.3.1.2.2.4.4.6Z"/>
  <path class="cls-3" d="M1148.5,625.5s-.7,0-1.4,0c.7.2,1.2.2,1.4,0Z"/>
  <path class="cls-3" d="M1318.5,580.9s.9-.4,1.7-.8c-.7.2-1.5.5-1.7.8Z"/>
  <path class="cls-3" d="M1330.6,577.5c0,0-.1,0-.2,0,.1,0,.2,0,.3,0,0,0,0,0,0,0Z"/>
  <path class="cls-4" d="M1129,612.6c-.1-.1-.2-.2-.3-.3,0,0,0,0,0,0,0,0,.2.2.3.3Z"/>
  <path class="cls-4" d="M1408.3,574.8c2.1,1.7,4.2,1.9,0,0h0Z"/>
  <path class="cls-1" d="M1715.4,223.6c-.1,0-.3,0-.4,0,.2,0,.4,0,.6,0,0,0-.1,0-.2,0Z"/>
  <path class="cls-3" d="M1530.1,556.6h0c-.8,0-1.7-.1-2.5-.3.8.2,1.7.3,2.5.3Z"/>
  <path class="cls-1" d="M1824.5,250.5c.8-.5,1.6-1.1,2.2-1.9l33.7-43.4-33.7,43.4c-.6.8-1.4,1.4-2.2,1.9Z"/>
  <path class="cls-1" d="M1809.1,108.5c-.3,0-.6,0-.9.1.5,0,1.1,0,1.6,0-.2,0-.5,0-.7,0Z"/>
  <path class="cls-1" d="M1820.4,251.6c.2,0,.5,0,.7,0-.7,0-1.4,0-2.1-.1.4,0,.9.2,1.3.2Z"/>
  <path class="cls-1" d="M795.1,308.6c-.2,0-.4,0-.5,0,.2,0,.4,0,.6,0,0,0,0,0,0,0Z"/>
  <path class="cls-1" d="M487.8,659.8c2.1,1.7,4.2,1.9,0,0h0Z"/>
  <path class="cls-3" d="M965.2,600.4c-4-49.5-27.2-98.1-64.2-131.4-8.2-7.4-17.1-14-26.4-19.9l-6.2,8-22.9,29.5-111.9,144.1c-5.5,7-12.3,13-20.2,17.8-4.6,2.8-9.4,5-14.2,6.7l-11.7,4.8-57.9,23.6-1.7.7-1.8.6c-5.3,1.7-10.8,2.5-16.4,2.5s-8.9-.5-13.4-1.6c-1.9-.5-3.5-1-4.7-1.4-1.7-.6-4-1.4-6.4-2.6-1.8-.8-3.1-1.6-4.1-2.1-2-1.2-3.9-2.3-5.6-3.6-1.2-.9-2.4-1.8-3.5-2.8-1.7-1.4-3.3-2.9-4.9-4.6-1-1.1-2-2.2-3-3.4-1.5-1.8-2.9-3.7-4.2-5.8-.7-1-1.5-2.4-2.5-4.3-1.6-3-2.5-5.6-3.1-7.4-.5-1.3-1.1-3.2-1.6-5.4-1.2-5.2-1.7-10.4-1.4-15.6v-1.9c.1,0,.4-1.8.4-1.8l5.5-40.4,4.7-34.1c1.1-12.7,5.3-24.8,12.3-35.3.7-1.1,1.7-2.6,2.9-4.2l14.1-18.1,111.3-143.3,14.5-18.6c-4.5-7.9-9.4-15.7-14.9-23.1-27.6-37.2-64.4-64.6-107.6-81.2-24.6-9.5-50.9-15.5-77.2-17.8-27.9-2.4-56,1.4-83,8.4-44.3,11.6-85.8,34-117.4,67.4-15.4,16.3-28.6,35-39.1,54.8-5.9,11.2-11,22.9-15.5,34.7-4.3,11.3-7.1,22.9-11,34.3-2.8,8.1-6.2,11.2-14.5,12.4-6,.9-13.1.5-19.4.8-8.7.4-17.3,1.3-25.9,2.9-23.9,4.4-47.2,13.6-67.6,26.7-41.3,26.6-70.8,68.6-83.5,116-8.4,31.4-8.1,64-.2,94.9,12-22.7,24.5-45.2,37.4-67.4,11.4-19.6,23.1-39,37.4-56.7,6-7.4,13.1-13.7,22.3-16.8,17.6-6,32.2,6.6,38.1,22,3.4,8.9,4,19,5,28.4,1.3,11.8,2.1,23.6,3.3,35.3.6,6.7,1.4,13.4,2.2,20.1,0,0,0,0,0,.1.2,1.7.5,3.4.7,5,.5,3.4,1.1,6.7,1.7,10,2.5,13.9,6.1,27.4,11,40.7,0,0,0,0,0,.2.6,1.3,1.2,2.7,1.9,4,1.3,2.7,2.8,5.4,4.4,8,.8,1.3,1.7,2.6,2.6,3.9.1.1.2.2.3.3,1.8,1.7,3.5,4.2,5.2,5.9.7.7,1.5,1.4,2.3,2,0,0,.2.2.3.2,1.3.8,2.5,1.6,3.9,2.3.4.2,1.1.5,1.8.8.8.2,2.5.9,3.9,1.3.2,0,.4,0,.7,0,1,0,1.9.1,2.9.1,2.3,0,4.6,0,6.8-.2,0,0,.1,0,.2,0,.2,0,.4,0,.6-.2,4.8-1.1,9.6-2.3,14.3-4,.9-.3,1.8-.7,2.7-1.1,0,0,0,0,.1,0,2-1.1,4.1-2,6.2-3,5.3-2.7,10.3-5.7,15.3-9,2-1.3,4-2.7,6-4.1,1.3-.9,2.6-1.9,4-2.8,0,0,.5-.4.9-.7.7-.6,2.1-1.7,2.3-1.8,1-.8,1.9-1.5,2.8-2.3,2.1-1.7,4.1-3.5,6.1-5.2,3.6-3.1,7.1-6.3,10.7-9.4,7.7-6.8,15.4-13.6,23.3-20.1,17.2-14,35.5-27.8,57.1-34.1,20.9-6.2,42.9-2.6,60.7,10.1,13.2,9.5,22.5,21.5,33.6,33.1,1.3,1.4,2.7,2.8,4.1,4.1.1.1.2.2.4.3,4.2,1.9,2.1,1.7,0,0-.3-.1-.5-.2-.8-.4,1.2.5,2.4,1.7,3.6,2.4.4.3,1.7.8,2.6,1.3.8.3,1.7.6,2.1.7.3,0,1.1.2,1.8.3,3.7,0,7.4.2,11.2-.2,15-1.4,26.3,13.4,26.9,26.9.7,15.4-12.9,25.6-26.9,26.9-9.7.9-20.2.2-29.6-2.8-16.6-5.3-29.1-16.3-40.3-29.2-4.6-5.3-9.1-10.7-14.3-15.4-1-.9-5.7-4.3-2.3-2.1,3.6,2.2-1.7-1.1-2.8-1.8-1.5-.9-3.1-1.7-4.6-2.6-.1,0-.2-.1-.3-.2-.2,0-.4,0-.6-.1-.4,0-.8-.2-1.2-.3-1.4,0-3.9,0-4.8-.1h0c-2.1.5-4.1,1-6.1,1.7-.3,0-.9.2-1.4.4,0,0,0,0,0,0-2.1,1-4.2,2-6.2,3.1-3.7,2-7.2,4.2-10.7,6.5-2.4,1.6-4.8,3.3-7.1,5-.9.6-2.4,1.8-2.9,2.2-3.4,2.8-6.8,5.5-10.2,8.4-7.7,6.6-15.3,13.4-22.9,20.1-34,30-76.6,59.9-124.4,52.3-35.1-5.6-56.6-37-68.4-67.8-10.4-27.1-13.9-56.8-16.9-85.5-5.7,9.5-11.2,19.2-16.6,28.9-15.6,27.7-30.5,55.8-45,84.1,31.5,45.5,79.7,74.9,134.9,82.2,19.2,2.5,38.5,2.3,57.8,2.3h492.9c31,.3,62.5-3.1,91.3-15,26.2-10.8,49.8-27.4,68.8-48.5,34.5-38.4,55-90.9,50.8-142.9Z"/>
  <path class="cls-2" d="M613.2,537.2c-.3.4-.5.8-.8,1.2-3,4.3-4.7,9.4-5,15l-4.9,35.5-5.5,40.4c0,.8,0,1.7.3,2.5,0,.3.2.5.3.8.2.5.4,1.1.6,1.6.2.3.3.6.5.9.3.5.6.9.9,1.3.2.3.5.5.7.8.4.4.8.8,1.2,1.1.3.2.6.5.9.7.4.3.9.6,1.4.9.3.2.6.4.9.5.5.3,1.1.4,1.6.6.3,0,.5.2.8.3.8.2,1.7.3,2.5.3s1.8-.1,2.6-.4l57.9-23.6,13-5.3c2.4-.8,4.6-1.8,6.6-3,3-1.8,5.6-4,7.6-6.6l111.9-144.1,22.9-29.5,40.1-51.7c1.6-2.1,2.1-4.8,1.6-7.2-.3-1.4-.9-2.6-1.8-3.7-.4-.4-.8-.8-1.3-1.2l-70.6-54.9c-.7-.6-1.5-.9-2.3-1.2-.1,0-.3-.1-.4-.2-.8-.2-1.6-.4-2.4-.4-.2,0-.4,0-.6,0-.4,0-.7,0-1.1.1-.2,0-.5,0-.7.2-.4,0-.7.2-1.1.4-.2,0-.4.2-.6.3-.4.2-.7.4-1.1.7-.2.1-.3.2-.5.3-.5.4-.9.8-1.3,1.4l-49.6,63.9-111.3,143.3-14.1,18.1Z"/>
  <path class="cls-2" d="M904,335.5c.8-.5,1.6-1.1,2.2-1.9l33.7-43.4,18.9-24.3c.8-1,1.4-2,1.9-3.1,1.1-2.1,1.7-4.4,1.8-6.7.3-4.6-1.2-9.3-4.3-12.9-.8-.9-1.7-1.7-2.6-2.5l-31.5-24.4-24.4-19s0,0,0,0c-.9-.7-1.9-1.3-2.9-1.8-.3-.2-.6-.3-1-.4-.7-.3-1.4-.6-2.1-.8-.4-.1-.8-.2-1.2-.3-.7-.2-1.4-.3-2-.3-.4,0-.8,0-1.2,0-.5,0-1.1,0-1.6,0-.8,0-1.5.1-2.3.3-.5,0-1,.2-1.4.3-.8.2-1.5.5-2.2.8-.4.2-.9.4-1.3.6-.8.4-1.5.9-2.2,1.4-.3.2-.7.5-1,.7-1,.8-1.9,1.8-2.8,2.8l-52.6,67.7c-1.3,1.7-1.8,3.7-1.6,5.6,0,0,0,.1,0,.2.3,2,1.3,3.9,3,5.3l71.8,55.8s0,0,0,0c.8.6,1.7,1,2.6,1.3.3,0,.6,0,.9.1.7.1,1.4.2,2.1.1.2,0,.3,0,.5,0,.9-.1,1.7-.4,2.5-.8.1,0,.2-.2.4-.2Z"/>
</svg>