<?xml version="1.0" encoding="utf-8"?>
<!-- Generator: Adobe Illustrator 28.0.0, SVG Export Plug-In . SVG Version: 6.00 Build 0)  -->
<svg version="1.1" id="Calque_1" xmlns="http://www.w3.org/2000/svg" xmlns:xlink="http://www.w3.org/1999/xlink" x="0px" y="0px"
	 viewBox="0 0 229.2 107.3" style="enable-background:new 0 0 229.2 107.3;" xml:space="preserve">
<style type="text/css">
	.st0{fill:#F08300;}
	.st1{fill:#929292;}
</style>
<g>
	<path class="st0" d="M103,31.1h15.7c11,0,18.5,6.4,18.5,16.6s-7.5,16.6-18.5,16.6H103V31.1z M118.3,56.9c5.6,0,9.4-3.4,9.4-9.1
		s-3.8-9.1-9.4-9.1h-5.9v18.2L118.3,56.9L118.3,56.9z"/>
	<path class="st0" d="M167.9,53.8h-18.7c0.8,2.6,3,4.1,6.3,4.1c2.5,0,4.2-0.7,5.9-2.2l4.8,4.9c-2.5,2.8-6.1,4.2-11,4.2
		c-9.2,0-15.1-5.6-15.1-13.3c0-7.7,6-13.2,14.1-13.2c7.6,0,13.8,4.8,13.8,13.3C168.1,52.2,168,53.1,167.9,53.8z M149.1,49h10.5
		c-0.5-2.7-2.5-4.4-5.3-4.4S149.6,46.3,149.1,49z"/>
	<path class="st0" d="M198.9,38.6l-10.6,25.7h-9.3l-10.6-25.7h9.2l6.2,15.7l6.5-15.7H198.9z"/>
	<path class="st0" d="M198.7,62.1l2.7-6.2c2.4,1.5,5.8,2.4,9,2.4c3,0,4-0.7,4-1.8c0-3.5-15.2,0.5-15.2-9.8c0-4.8,4.5-8.5,12.5-8.5
		c3.6,0,7.6,0.8,10.2,2.2l-2.7,6.1c-2.6-1.4-5.1-1.9-7.4-1.9c-3,0-4.1,0.9-4.1,1.8c0,3.6,15.1-0.3,15.1,9.9c0,4.8-4.4,8.5-12.7,8.5
		C205.7,64.8,201.2,63.7,198.7,62.1z"/>
</g>
<g>
	<path class="st1" d="M90.3,78.2l0.5-0.8c0.6,0.5,1.7,0.9,2.8,0.9c1.5,0,2.1-0.5,2.1-1.3c0-2-5.1-0.4-5.1-3.5c0-1.3,1.1-2.2,3.1-2.2
		c1,0,2.1,0.3,2.8,0.7l-0.5,0.9c-0.7-0.5-1.5-0.7-2.3-0.7c-1.4,0-2,0.5-2,1.3c0,2.1,5.1,0.5,5.1,3.5c0,1.4-1.2,2.2-3.2,2.2
		C92.2,79.2,91,78.7,90.3,78.2z"/>
	<path class="st1" d="M105.6,75.5H99c0.1,1.6,1.4,2.7,3.1,2.7c1,0,1.8-0.3,2.4-1l0.6,0.7c-0.7,0.8-1.8,1.3-3,1.3
		c-2.5,0-4.1-1.7-4.1-4s1.6-4,3.9-4s3.8,1.6,3.8,4C105.6,75.2,105.6,75.4,105.6,75.5z M99,74.7h5.6c-0.1-1.5-1.3-2.6-2.8-2.6
		C100.3,72.1,99.1,73.1,99,74.7z"/>
	<path class="st1" d="M107,75.1c0-2.4,1.7-4,4.1-4c1.3,0,2.5,0.5,3.1,1.6l-0.8,0.5c-0.5-0.8-1.4-1.2-2.3-1.2c-1.7,0-3,1.2-3,3.1
		c0,1.9,1.3,3.1,3,3.1c0.9,0,1.8-0.4,2.3-1.1l0.8,0.5c-0.6,1-1.8,1.6-3.1,1.6C108.7,79.2,107,77.5,107,75.1z"/>
	<path class="st1" d="M123.3,71.2v7.9h-1v-1.4c-0.5,1-1.6,1.5-2.8,1.5c-2,0-3.3-1.1-3.3-3.4v-4.6h1.1v4.5c0,1.7,0.9,2.5,2.4,2.5
		c1.6,0,2.7-1.1,2.7-2.9v-4.1L123.3,71.2L123.3,71.2z"/>
	<path class="st1" d="M130.2,71.1v1c-0.1,0-0.2,0-0.2,0c-1.6,0-2.6,1-2.6,2.9v4h-1.1v-7.9h1v1.5C127.8,71.7,128.8,71.1,130.2,71.1z"
		/>
	<path class="st1" d="M131.9,68.7c0-0.4,0.3-0.8,0.8-0.8c0.4,0,0.8,0.3,0.8,0.7c0,0.4-0.3,0.8-0.8,0.8
		C132.3,69.5,131.9,69.1,131.9,68.7z M132.2,71.2h1.1v7.9h-1.1V71.2z"/>
	<path class="st1" d="M140.3,78.6c-0.4,0.4-1,0.5-1.7,0.5c-1.5,0-2.3-0.8-2.3-2.3v-4.8h-1.4v-0.9h1.4v-1.7h1.1v1.7h2.4v0.9h-2.4v4.7
		c0,0.9,0.5,1.4,1.4,1.4c0.4,0,0.9-0.1,1.2-0.4L140.3,78.6z"/>
	<path class="st1" d="M148.7,71.2l-3.9,8.8c-0.7,1.5-1.5,2-2.6,2c-0.7,0-1.4-0.2-1.9-0.7l0.5-0.8c0.4,0.4,0.9,0.6,1.4,0.6
		c0.7,0,1.2-0.3,1.6-1.3l0.3-0.8l-3.5-7.9h1.1l3,6.7l3-6.7L148.7,71.2L148.7,71.2z"/>
	<path class="st1" d="M153,78.2l0.5-0.8c0.6,0.5,1.7,0.9,2.8,0.9c1.5,0,2.1-0.5,2.1-1.3c0-2-5.1-0.4-5.1-3.5c0-1.3,1.1-2.2,3.1-2.2
		c1,0,2.1,0.3,2.8,0.7l-0.5,0.9c-0.7-0.5-1.5-0.7-2.3-0.7c-1.4,0-2,0.5-2,1.3c0,2.1,5.1,0.5,5.1,3.5c0,1.4-1.2,2.2-3.2,2.2
		C154.9,79.2,153.7,78.7,153,78.2z"/>
	<path class="st1" d="M160.7,75.1c0-2.3,1.7-4,4-4s4,1.7,4,4s-1.7,4-4,4S160.7,77.5,160.7,75.1z M167.6,75.1c0-1.8-1.2-3.1-2.9-3.1
		s-2.9,1.2-2.9,3.1s1.3,3.1,2.9,3.1S167.6,77,167.6,75.1z"/>
	<path class="st1" d="M170.8,68h1.1v11.1h-1.1V68z"/>
	<path class="st1" d="M182,71.2v7.9h-1v-1.4c-0.5,1-1.6,1.5-2.8,1.5c-2,0-3.3-1.1-3.3-3.4v-4.6h1.1v4.5c0,1.7,0.9,2.5,2.4,2.5
		c1.6,0,2.7-1.1,2.7-2.9v-4.1L182,71.2L182,71.2z"/>
	<path class="st1" d="M189.1,78.6c-0.4,0.4-1,0.5-1.7,0.5c-1.5,0-2.3-0.8-2.3-2.3v-4.8h-1.4v-0.9h1.4v-1.7h1.1v1.7h2.4v0.9h-2.4v4.7
		c0,0.9,0.5,1.4,1.4,1.4c0.4,0,0.9-0.1,1.2-0.4L189.1,78.6z"/>
	<path class="st1" d="M190.8,68.7c0-0.4,0.3-0.8,0.8-0.8c0.4,0,0.8,0.3,0.8,0.7c0,0.4-0.3,0.8-0.8,0.8
		C191.1,69.5,190.8,69.1,190.8,68.7z M191,71.2h1.1v7.9H191V71.2z"/>
	<path class="st1" d="M194.2,75.1c0-2.3,1.7-4,4-4c2.3,0,4,1.7,4,4s-1.7,4-4,4S194.2,77.5,194.2,75.1z M201.2,75.1
		c0-1.8-1.2-3.1-2.9-3.1s-2.9,1.2-2.9,3.1s1.3,3.1,2.9,3.1S201.2,77,201.2,75.1z"/>
	<path class="st1" d="M211.7,74.5v4.6h-1.1v-4.5c0-1.7-0.9-2.5-2.4-2.5c-1.7,0-2.8,1-2.8,2.8v4.1h-1.1v-7.9h1v1.5
		c0.6-1,1.6-1.5,3-1.5C210.3,71.1,211.7,72.3,211.7,74.5z"/>
	<path class="st1" d="M213.4,78.2l0.5-0.8c0.6,0.5,1.7,0.9,2.8,0.9c1.5,0,2.1-0.5,2.1-1.3c0-2-5.1-0.4-5.1-3.5
		c0-1.3,1.1-2.2,3.1-2.2c1,0,2.1,0.3,2.8,0.7l-0.5,0.9c-0.7-0.5-1.5-0.7-2.3-0.7c-1.4,0-2,0.5-2,1.3c0,2.1,5.1,0.5,5.1,3.5
		c0,1.4-1.2,2.2-3.2,2.2C215.3,79.2,214.1,78.7,213.4,78.2z"/>
</g>
<g>
	<path class="st0" d="M67.5,81.3c-7.5,8.8-15,13.6-18,15.4c-2.4-1.7-4.5-3.5-6.6-5.4h-7.8C38.8,95,43,98.6,47.7,102l1.3,0.9l1.4-0.7
		c0.4-0.2,10.7-5.2,21-17.3c1.9-2.2,3.9-4.8,5.8-7.7h-6.6C69.7,78.6,68.6,80,67.5,81.3z"/>
	<path d="M49.9,4.3C24.4,4.3,6.3,22.8,6.3,22.8l0,1.8c0,1.6,0.6,33.5,23.4,60.8H37C15.6,62.2,12.3,33.6,11.8,26.3
		c0,0,15.6-16.2,38-16.2s33.4,12.9,33.4,12.9h8.9v-0.2C92.2,22.8,75.3,4.3,49.9,4.3z"/>
</g>
<path d="M47.4,55.5h-5.1v8.8h-9.4V31.1h15.2c9.1,0,14.8,4.7,14.8,12.3c0,4.9-2.4,8.5-6.5,10.5l7.2,10.4H53.4L47.4,55.5z M47.5,38.5
	h-5.2v9.7h5.2c3.9,0,5.8-1.8,5.8-4.8C53.3,40.3,51.4,38.5,47.5,38.5z"/>
<path d="M66.3,47.8c0-10.1,7.7-17.3,18.3-17.3c6.1,0,11.1,2.2,14.3,6.3l-6,5.4c-2.1-2.5-4.6-3.9-7.8-3.9c-5.5,0-9.2,3.8-9.2,9.5
	s3.8,9.5,9.2,9.5c3.2,0,5.7-1.4,7.8-3.9l6,5.4c-3.2,4-8.2,6.3-14.3,6.3C74,65,66.3,57.9,66.3,47.8z"/>
</svg>
